<svg width="35" height="29" viewBox="0 0 35 29" fill="none" xmlns="http://www.w3.org/2000/svg">
<path d="M17.5 0C7.84 0 0 6.496 0 14.5C0 22.504 7.84 29 17.5 29C27.16 29 35 22.504 35 14.5C35 6.496 27.16 0 17.5 0ZM8.8725 23.606C9.625 22.301 14.21 21.025 17.5 21.025C20.79 21.025 25.3925 22.301 26.1275 23.606C23.7475 25.172 20.755 26.1 17.5 26.1C14.245 26.1 11.2525 25.172 8.8725 23.606ZM28.63 21.5035C26.1275 18.9805 20.055 18.125 17.5 18.125C14.945 18.125 8.8725 18.9805 6.37 21.5035C4.585 19.5605 3.5 17.139 3.5 14.5C3.5 8.1055 9.7825 2.9 17.5 2.9C25.2175 2.9 31.5 8.1055 31.5 14.5C31.5 17.139 30.415 19.5605 28.63 21.5035ZM17.5 5.8C14.105 5.8 11.375 8.062 11.375 10.875C11.375 13.688 14.105 15.95 17.5 15.95C20.895 15.95 23.625 13.688 23.625 10.875C23.625 8.062 20.895 5.8 17.5 5.8ZM17.5 13.05C16.0475 13.05 14.875 12.0785 14.875 10.875C14.875 9.6715 16.0475 8.7 17.5 8.7C18.9525 8.7 20.125 9.6715 20.125 10.875C20.125 12.0785 18.9525 13.05 17.5 13.05Z" fill="white"/>
</svg>
