<svg width="38" height="32" viewBox="0 0 38 32" fill="none" xmlns="http://www.w3.org/2000/svg">
<path d="M33.5173 17.568C33.5955 17.056 33.6541 16.544 33.6541 16C33.6541 15.456 33.5955 14.944 33.5173 14.432L37.6388 11.792C38.0099 11.552 38.1076 11.12 37.8732 10.768L33.9666 5.232C33.7908 4.976 33.4587 4.832 33.1071 4.832C32.9899 4.832 32.8727 4.848 32.7751 4.88L27.9114 6.48C26.8956 5.84 25.8018 5.312 24.6103 4.912L23.868 0.672C23.8094 0.288 23.3992 0 22.9109 0H15.0977C14.6094 0 14.1992 0.288 14.1406 0.672L13.3983 4.912C12.2068 5.312 11.113 5.856 10.0973 6.48L5.23354 4.88C5.11634 4.848 4.99915 4.832 4.88195 4.832C4.54989 4.832 4.21783 4.976 4.04203 5.232L0.135425 10.768C-0.118504 11.12 -0.0013054 11.552 0.369822 11.792L4.49129 14.432C4.41316 14.944 4.35456 15.472 4.35456 16C4.35456 16.528 4.41316 17.056 4.49129 17.568L0.369822 20.208C-0.0013054 20.448 -0.0989707 20.88 0.135425 21.232L4.04203 26.768C4.21783 27.024 4.54989 27.168 4.90148 27.168C5.01868 27.168 5.13588 27.152 5.23354 27.12L10.0973 25.52C11.113 26.16 12.2068 26.688 13.3983 27.088L14.1406 31.328C14.1992 31.712 14.6094 32 15.0977 32H22.9109C23.3992 32 23.8094 31.712 23.868 31.328L24.6103 27.088C25.8018 26.688 26.8956 26.144 27.9114 25.52L32.7751 27.12C32.8923 27.152 33.0095 27.168 33.1267 27.168C33.4587 27.168 33.7908 27.024 33.9666 26.768L37.8732 21.232C38.1076 20.88 38.0099 20.448 37.6388 20.208L33.5173 17.568ZM29.6498 14.832C29.7279 15.328 29.7475 15.664 29.7475 16C29.7475 16.336 29.7084 16.688 29.6498 17.168L29.3763 18.976L31.1148 20.096L33.2243 21.44L31.857 23.376L29.3763 22.56L27.3449 21.888L25.5869 22.976C24.747 23.488 23.9462 23.872 23.1453 24.144L21.0748 24.832L20.7623 26.64L20.3716 28.8H17.637L17.2659 26.64L16.9533 24.832L14.8828 24.144C14.0429 23.856 13.2616 23.488 12.4803 23.008L10.7028 21.888L8.63229 22.576L6.15159 23.392L4.78428 21.456L6.89385 20.112L8.63229 18.992L8.35882 17.184C8.30022 16.688 8.26116 16.32 8.26116 16C8.26116 15.68 8.30022 15.312 8.35882 14.832L8.63229 13.024L6.89385 11.904L4.78428 10.56L6.15159 8.624L8.63229 9.44L10.6637 10.112L12.4217 9.024C13.2616 8.512 14.0625 8.128 14.8633 7.856L16.9338 7.168L17.2463 5.36L17.637 3.2H20.3521L20.7232 5.36L21.0357 7.168L23.1062 7.856C23.9462 8.144 24.7275 8.512 25.5088 8.992L27.2863 10.112L29.3568 9.424L31.8375 8.608L33.2048 10.544L31.1148 11.904L29.3763 13.024L29.6498 14.832ZM19.0043 9.6C14.6875 9.6 11.1911 12.464 11.1911 16C11.1911 19.536 14.6875 22.4 19.0043 22.4C23.3211 22.4 26.8175 19.536 26.8175 16C26.8175 12.464 23.3211 9.6 19.0043 9.6ZM19.0043 19.2C16.8557 19.2 15.0977 17.76 15.0977 16C15.0977 14.24 16.8557 12.8 19.0043 12.8C21.1529 12.8 22.9109 14.24 22.9109 16C22.9109 17.76 21.1529 19.2 19.0043 19.2Z" fill="#DB1A1A"/>
</svg>
