<svg width="44" height="45" viewBox="0 0 44 45" fill="none" xmlns="http://www.w3.org/2000/svg">
<path d="M38.6085 24.705C38.6985 23.985 38.766 23.265 38.766 22.5C38.766 21.735 38.6985 21.015 38.6085 20.295L43.356 16.5825C43.7835 16.245 43.896 15.6375 43.626 15.1425L39.126 7.3575C38.9235 6.9975 38.541 6.795 38.136 6.795C38.001 6.795 37.866 6.8175 37.7535 6.8625L32.151 9.1125C30.981 8.2125 29.721 7.47 28.3485 6.9075L27.4935 0.945C27.426 0.405 26.9535 0 26.391 0H17.391C16.8285 0 16.356 0.405 16.2885 0.945L15.4335 6.9075C14.061 7.47 12.801 8.235 11.631 9.1125L6.0285 6.8625C5.8935 6.8175 5.7585 6.795 5.6235 6.795C5.241 6.795 4.8585 6.9975 4.656 7.3575L0.155996 15.1425C-0.136504 15.6375 -0.00150368 16.245 0.425996 16.5825L5.1735 20.295C5.0835 21.015 5.016 21.7575 5.016 22.5C5.016 23.2425 5.0835 23.985 5.1735 24.705L0.425996 28.4175C-0.00150368 28.755 -0.114004 29.3625 0.155996 29.8575L4.656 37.6425C4.8585 38.0025 5.241 38.205 5.646 38.205C5.781 38.205 5.916 38.1825 6.0285 38.1375L11.631 35.8875C12.801 36.7875 14.061 37.53 15.4335 38.0925L16.2885 44.055C16.356 44.595 16.8285 45 17.391 45H26.391C26.9535 45 27.426 44.595 27.4935 44.055L28.3485 38.0925C29.721 37.53 30.981 36.765 32.151 35.8875L37.7535 38.1375C37.8885 38.1825 38.0235 38.205 38.1585 38.205C38.541 38.205 38.9235 38.0025 39.126 37.6425L43.626 29.8575C43.896 29.3625 43.7835 28.755 43.356 28.4175L38.6085 24.705ZM34.1535 20.8575C34.2435 21.555 34.266 22.0275 34.266 22.5C34.266 22.9725 34.221 23.4675 34.1535 24.1425L33.8385 26.685L35.841 28.26L38.271 30.15L36.696 32.8725L33.8385 31.725L31.4985 30.78L29.4735 32.31C28.506 33.03 27.5835 33.57 26.661 33.9525L24.276 34.92L23.916 37.4625L23.466 40.5H20.316L19.8885 37.4625L19.5285 34.92L17.1435 33.9525C16.176 33.5475 15.276 33.03 14.376 32.355L12.3285 30.78L9.9435 31.7475L7.086 32.895L5.511 30.1725L7.941 28.2825L9.9435 26.7075L9.6285 24.165C9.561 23.4675 9.516 22.95 9.516 22.5C9.516 22.05 9.561 21.5325 9.6285 20.8575L9.9435 18.315L7.941 16.74L5.511 14.85L7.086 12.1275L9.9435 13.275L12.2835 14.22L14.3085 12.69C15.276 11.97 16.1985 11.43 17.121 11.0475L19.506 10.08L19.866 7.5375L20.316 4.5H23.4435L23.871 7.5375L24.231 10.08L26.616 11.0475C27.5835 11.4525 28.4835 11.97 29.3835 12.645L31.431 14.22L33.816 13.2525L36.6735 12.105L38.2485 14.8275L35.841 16.74L33.8385 18.315L34.1535 20.8575ZM21.891 13.5C16.9185 13.5 12.891 17.5275 12.891 22.5C12.891 27.4725 16.9185 31.5 21.891 31.5C26.8635 31.5 30.891 27.4725 30.891 22.5C30.891 17.5275 26.8635 13.5 21.891 13.5ZM21.891 27C19.416 27 17.391 24.975 17.391 22.5C17.391 20.025 19.416 18 21.891 18C24.366 18 26.391 20.025 26.391 22.5C26.391 24.975 24.366 27 21.891 27Z" fill="white"/>
</svg>
